<?xml version="1.0" encoding="UTF-8" standalone="no"?>
<svg
   fill="none"
   viewBox="0 0 24 24"
   version="1.1"
   id="svg158"
   sodipodi:docname="star.svg"
   inkscape:version="1.2.2 (b0a8486541, 2022-12-01)"
   xmlns:inkscape="http://www.inkscape.org/namespaces/inkscape"
   xmlns:sodipodi="http://sodipodi.sourceforge.net/DTD/sodipodi-0.dtd"
   xmlns="http://www.w3.org/2000/svg"
   xmlns:svg="http://www.w3.org/2000/svg">
  <defs
     id="defs162" />
  <sodipodi:namedview
     id="namedview160"
     pagecolor="#ffffff"
     bordercolor="#000000"
     borderopacity="0.25"
     inkscape:showpageshadow="2"
     inkscape:pageopacity="0.0"
     inkscape:pagecheckerboard="0"
     inkscape:deskcolor="#d1d1d1"
     showgrid="true"
     inkscape:zoom="19.708333"
     inkscape:cx="9.2854123"
     inkscape:cy="12.761099"
     inkscape:window-width="1340"
     inkscape:window-height="679"
     inkscape:window-x="0"
     inkscape:window-y="0"
     inkscape:window-maximized="1"
     inkscape:current-layer="svg158">
    <inkscape:grid
       type="xygrid"
       id="grid4222"
       spacingx="2"
       spacingy="2" />
  </sodipodi:namedview>
  <!-- Background -->
  <!-- Star -->
  <path
     id="rect4228"
     style="fill:#ffffff;fill-opacity:1;stroke:none;stroke-width:12;stroke-linecap:round;stroke-linejoin:bevel;stroke-opacity:1;paint-order:markers stroke fill"
     d="M 10 2 L 10 4 L 14 4 L 14 2 L 10 2 z M 14 4 L 14 8 L 14 10 L 20 10 L 20 12 L 22 12 L 22 10 L 22 8 L 16 8 L 16 4 L 14 4 z M 20 12 L 18 12 L 18 14 L 20 14 L 20 12 z M 18 14 L 16 14 L 16 16 L 18 16 L 18 14 z M 18 16 L 18 20 L 20 20 L 20 16 L 18 16 z M 20 20 L 20 22 L 16 22 L 16 24 L 20 24 L 22 24 L 22 20 L 20 20 z M 16 22 L 16 20 L 14 20 L 14 22 L 16 22 z M 14 20 L 14 18 L 10 18 L 10 20 L 14 20 z M 10 20 L 8 20 L 8 22 L 10 22 L 10 20 z M 8 22 L 4 22 L 4 20 L 2 20 L 2 22 L 2 24 L 8 24 L 8 22 z M 4 20 L 6 20 L 6 16 L 4 16 L 4 20 z M 6 16 L 8 16 L 8 14 L 6 14 L 6 16 z M 6 14 L 6 12 L 4 12 L 4 14 L 6 14 z M 4 12 L 4 10 L 10 10 L 10 8 L 10 4 L 8 4 L 8 8 L 2 8 L 2 10 L 2 12 L 4 12 z " />
</svg>
